<?xml version="1.0" encoding="UTF-8"?>
<svg xmlns="http://www.w3.org/2000/svg" xmlns:xlink="http://www.w3.org/1999/xlink" width="24px" height="27px" viewBox="0 0 24 26" version="1.1">
<g id="surface1">
<path style=" stroke:none;fill-rule:nonzero;fill:rgb(0%,34.901961%,61.176471%);fill-opacity:1;" d="M 23.695312 19.519531 C 23.882812 19.207031 24 18.851562 24 18.535156 L 24 7.492188 C 24 7.175781 23.882812 6.820312 23.695312 6.507812 L 12 13.011719 Z M 23.695312 19.519531 "/>
<path style=" stroke:none;fill-rule:nonzero;fill:rgb(0%,26.666667%,50.980392%);fill-opacity:1;" d="M 13.039062 25.789062 L 22.960938 20.269531 C 23.246094 20.109375 23.507812 19.835938 23.695312 19.519531 L 12 13.011719 L 0.304688 19.519531 C 0.492188 19.835938 0.753906 20.109375 1.039062 20.269531 L 10.960938 25.789062 C 11.53125 26.105469 12.46875 26.105469 13.039062 25.789062 Z M 13.039062 25.789062 "/>
<path style=" stroke:none;fill-rule:nonzero;fill:rgb(39.607843%,60.392157%,82.352941%);fill-opacity:1;" d="M 23.695312 6.507812 C 23.507812 6.191406 23.246094 5.917969 22.960938 5.757812 L 13.039062 0.238281 C 12.46875 -0.078125 11.53125 -0.078125 10.960938 0.238281 L 1.039062 5.757812 C 0.46875 6.078125 0 6.855469 0 7.492188 L 0 18.535156 C 0 18.851562 0.117188 19.207031 0.304688 19.519531 L 12 13.011719 Z M 23.695312 6.507812 "/>
<path style=" stroke:none;fill-rule:nonzero;fill:rgb(100%,100%,100%);fill-opacity:1;" d="M 12 20.722656 C 7.589844 20.722656 4 17.265625 4 13.011719 C 4 8.761719 7.589844 5.304688 12 5.304688 C 14.847656 5.304688 17.5 6.78125 18.929688 9.15625 L 15.464844 11.085938 C 14.75 9.898438 13.421875 9.160156 12 9.160156 C 9.792969 9.160156 8 10.886719 8 13.011719 C 8 15.136719 9.792969 16.867188 12 16.867188 C 13.421875 16.867188 14.75 16.128906 15.464844 14.9375 L 18.929688 16.871094 C 17.5 19.246094 14.847656 20.722656 12 20.722656 Z M 12 20.722656 "/>
<path style=" stroke:none;fill-rule:nonzero;fill:rgb(100%,100%,100%);fill-opacity:1;" d="M 20 12.585938 L 19.109375 12.585938 L 19.109375 11.726562 L 18.222656 11.726562 L 18.222656 12.585938 L 17.332031 12.585938 L 17.332031 13.441406 L 18.222656 13.441406 L 18.222656 14.296875 L 19.109375 14.296875 L 19.109375 13.441406 L 20 13.441406 Z M 20 12.585938 "/>
<path style=" stroke:none;fill-rule:nonzero;fill:rgb(100%,100%,100%);fill-opacity:1;" d="M 23.332031 12.585938 L 22.445312 12.585938 L 22.445312 11.726562 L 21.554688 11.726562 L 21.554688 12.585938 L 20.667969 12.585938 L 20.667969 13.441406 L 21.554688 13.441406 L 21.554688 14.296875 L 22.445312 14.296875 L 22.445312 13.441406 L 23.332031 13.441406 Z M 23.332031 12.585938 "/>
</g>
</svg>
