<?xml version="1.0" encoding="UTF-8"?>
<svg xmlns="http://www.w3.org/2000/svg" xmlns:xlink="http://www.w3.org/1999/xlink" width="24px" height="24px" viewBox="0 0 24 23" version="1.1">
<g id="surface1">
<path style=" stroke:none;fill-rule:nonzero;fill:rgb(0%,32.941176%,41.960784%);fill-opacity:1;" d="M 22.09375 17.726562 C 20.789062 17.695312 19.777344 17.820312 18.929688 18.167969 C 18.683594 18.265625 18.292969 18.265625 18.257812 18.566406 C 18.390625 18.695312 18.40625 18.902344 18.519531 19.074219 C 18.714844 19.390625 19.058594 19.820312 19.367188 20.042969 C 19.710938 20.296875 20.054688 20.550781 20.410156 20.773438 C 21.046875 21.15625 21.765625 21.378906 22.386719 21.757812 C 22.746094 21.980469 23.101562 22.265625 23.460938 22.503906 C 23.640625 22.632812 23.753906 22.839844 23.984375 22.917969 L 23.984375 22.871094 C 23.871094 22.726562 23.835938 22.519531 23.722656 22.363281 C 23.558594 22.203125 23.398438 22.058594 23.234375 21.902344 C 22.761719 21.28125 22.171875 20.742188 21.539062 20.296875 C 21.015625 19.949219 19.875 19.472656 19.660156 18.882812 C 19.660156 18.882812 19.644531 18.867188 19.628906 18.851562 C 19.988281 18.820312 20.410156 18.695312 20.753906 18.597656 C 21.308594 18.457031 21.816406 18.488281 22.386719 18.34375 C 22.648438 18.28125 22.90625 18.203125 23.167969 18.121094 L 23.167969 17.980469 C 22.875 17.695312 22.664062 17.3125 22.351562 17.042969 C 21.519531 16.34375 20.609375 15.660156 19.660156 15.089844 C 19.15625 14.773438 18.503906 14.566406 17.964844 14.296875 C 17.769531 14.199219 17.445312 14.152344 17.328125 13.992188 C 17.035156 13.644531 16.871094 13.183594 16.660156 12.769531 C 16.1875 11.898438 15.730469 10.929688 15.324219 10.007812 C 15.03125 9.390625 14.851562 8.769531 14.492188 8.199219 C 12.8125 5.5 10.984375 3.863281 8.179688 2.257812 C 7.574219 1.925781 6.859375 1.78125 6.089844 1.609375 C 5.683594 1.59375 5.277344 1.5625 4.867188 1.542969 C 4.605469 1.433594 4.347656 1.132812 4.117188 0.988281 C 3.1875 0.417969 0.789062 -0.820312 0.105469 0.816406 C -0.335938 1.847656 0.757812 2.863281 1.132812 3.386719 C 1.410156 3.753906 1.769531 4.164062 1.964844 4.578125 C 2.078125 4.847656 2.113281 5.132812 2.226562 5.417969 C 2.488281 6.117188 2.730469 6.894531 3.074219 7.546875 C 3.253906 7.878906 3.449219 8.230469 3.675781 8.53125 C 3.808594 8.707031 4.035156 8.785156 4.085938 9.070312 C 3.855469 9.390625 3.839844 9.867188 3.710938 10.261719 C 3.121094 12.054688 3.351562 14.28125 4.183594 15.597656 C 4.445312 15.996094 5.0625 16.867188 5.894531 16.535156 C 6.628906 16.25 6.464844 15.34375 6.679688 14.550781 C 6.726562 14.359375 6.695312 14.230469 6.792969 14.105469 L 6.792969 14.136719 C 7.019531 14.582031 7.25 15.011719 7.460938 15.453125 C 7.96875 16.234375 8.847656 17.042969 9.582031 17.582031 C 9.972656 17.867188 10.28125 18.359375 10.773438 18.535156 L 10.773438 18.488281 L 10.738281 18.488281 C 10.640625 18.34375 10.496094 18.28125 10.363281 18.167969 C 10.070312 17.882812 9.746094 17.535156 9.515625 17.21875 C 8.832031 16.328125 8.226562 15.34375 7.691406 14.328125 C 7.429688 13.835938 7.199219 13.296875 6.988281 12.804688 C 6.890625 12.613281 6.890625 12.328125 6.726562 12.230469 C 6.484375 12.582031 6.125 12.882812 5.945312 13.3125 C 5.632812 13.992188 5.601562 14.835938 5.488281 15.707031 C 5.421875 15.726562 5.453125 15.707031 5.421875 15.742188 C 4.902344 15.613281 4.722656 15.089844 4.523438 14.644531 C 4.035156 13.515625 3.953125 11.707031 4.378906 10.40625 C 4.492188 10.070312 4.980469 9.023438 4.785156 8.707031 C 4.6875 8.40625 4.363281 8.230469 4.183594 7.992188 C 3.972656 7.691406 3.742188 7.308594 3.59375 6.976562 C 3.203125 6.085938 3.007812 5.101562 2.585938 4.210938 C 2.386719 3.800781 2.046875 3.371094 1.769531 2.988281 C 1.460938 2.5625 1.117188 2.257812 0.871094 1.75 C 0.789062 1.578125 0.675781 1.289062 0.804688 1.101562 C 0.839844 0.972656 0.90625 0.925781 1.035156 0.894531 C 1.246094 0.71875 1.851562 0.941406 2.0625 1.035156 C 2.664062 1.273438 3.171875 1.496094 3.675781 1.832031 C 3.90625 1.988281 4.148438 2.292969 4.445312 2.371094 L 4.785156 2.371094 C 5.308594 2.480469 5.894531 2.402344 6.382812 2.546875 C 7.25 2.816406 8.03125 3.210938 8.734375 3.640625 C 10.871094 4.957031 12.632812 6.832031 13.824219 9.070312 C 14.019531 9.4375 14.101562 9.769531 14.277344 10.152344 C 14.621094 10.929688 15.046875 11.722656 15.386719 12.484375 C 15.730469 13.230469 16.058594 13.992188 16.546875 14.613281 C 16.789062 14.945312 17.769531 15.121094 18.210938 15.296875 C 18.535156 15.4375 19.042969 15.566406 19.335938 15.742188 C 19.890625 16.074219 20.445312 16.453125 20.964844 16.820312 C 21.226562 17.011719 22.042969 17.40625 22.09375 17.726562 Z M 22.09375 17.726562 "/>
<path style=" stroke:none;fill-rule:nonzero;fill:rgb(0%,32.941176%,41.960784%);fill-opacity:1;" d="M 5.453125 3.925781 C 5.175781 3.925781 4.980469 3.957031 4.785156 4.007812 L 4.785156 4.039062 L 4.820312 4.039062 C 4.949219 4.292969 5.175781 4.464844 5.339844 4.6875 C 5.472656 4.941406 5.585938 5.195312 5.714844 5.449219 C 5.730469 5.433594 5.75 5.417969 5.75 5.417969 C 5.976562 5.261719 6.089844 5.007812 6.089844 4.625 C 5.992188 4.515625 5.976562 4.402344 5.894531 4.292969 C 5.796875 4.132812 5.585938 4.054688 5.453125 3.925781 Z M 5.453125 3.925781 "/>
</g>
</svg>
