<?xml version="1.0" encoding="UTF-8"?>
<svg xmlns="http://www.w3.org/2000/svg" xmlns:xlink="http://www.w3.org/1999/xlink" width="24px" height="24px" viewBox="0 0 24 23" version="1.1">
<g id="surface1">
<rect x="0" y="0" width="24" height="23" style="fill:rgb(100%,100%,100%);fill-opacity:1;stroke:none;"/>
<path style=" stroke:none;fill-rule:evenodd;fill:rgb(0%,0%,0%);fill-opacity:1;" d="M 4.988281 13.746094 C 3.4375 13.746094 2.964844 12.507812 2.964844 11.652344 C 2.964844 10.792969 3.4375 9.554688 4.988281 9.554688 C 6.539062 9.554688 7.011719 10.792969 7.011719 11.652344 C 7.011719 12.507812 6.539062 13.746094 4.988281 13.746094 Z M 4.988281 10.03125 C 4.085938 10.03125 3.542969 10.714844 3.542969 11.652344 C 3.542969 12.585938 4.085938 13.269531 4.988281 13.269531 C 5.890625 13.269531 6.433594 12.585938 6.433594 11.652344 C 6.433594 10.714844 5.890625 10.03125 4.988281 10.03125 Z M 7.324219 11.09375 L 7.746094 11.09375 L 7.746094 11.457031 L 7.753906 11.457031 C 7.863281 11.308594 8.066406 11.023438 8.546875 11.023438 C 9.253906 11.023438 9.753906 11.59375 9.753906 12.3125 C 9.753906 12.917969 9.390625 13.714844 8.484375 13.714844 C 8.132812 13.714844 7.898438 13.550781 7.78125 13.371094 L 7.769531 13.371094 L 7.769531 14.648438 L 7.324219 14.648438 Z M 8.453125 13.34375 C 8.941406 13.34375 9.269531 12.9375 9.269531 12.378906 C 9.269531 12.054688 9.132812 11.40625 8.441406 11.40625 C 7.796875 11.40625 7.726562 12.074219 7.726562 12.488281 C 7.726562 13.164062 8.167969 13.34375 8.453125 13.34375 Z M 12.460938 12.84375 C 12.445312 12.964844 12.324219 13.324219 11.988281 13.539062 C 11.867188 13.617188 11.691406 13.714844 11.265625 13.714844 C 10.519531 13.714844 10.078125 13.171875 10.078125 12.4375 C 10.078125 11.648438 10.472656 11.023438 11.351562 11.023438 C 12.121094 11.023438 12.496094 11.605469 12.496094 12.507812 L 10.554688 12.507812 C 10.554688 13.035156 10.816406 13.34375 11.328125 13.34375 C 11.75 13.34375 11.996094 13.03125 12.011719 12.84375 Z M 11.984375 12.164062 C 11.960938 11.773438 11.789062 11.40625 11.246094 11.40625 C 10.832031 11.40625 10.507812 11.773438 10.507812 12.164062 Z M 14.964844 13.640625 L 14.519531 13.640625 L 14.519531 12.074219 C 14.519531 11.628906 14.386719 11.40625 13.949219 11.40625 C 13.695312 11.40625 13.25 11.5625 13.25 12.253906 L 13.25 13.640625 L 12.800781 13.640625 L 12.800781 11.09375 L 13.222656 11.09375 L 13.222656 11.457031 L 13.234375 11.457031 C 13.328125 11.320312 13.578125 11.023438 14.035156 11.023438 C 14.445312 11.023438 14.964844 11.183594 14.964844 11.90625 Z M 17.558594 11.496094 L 19.292969 11.496094 L 19.292969 13.640625 L 18.714844 13.640625 L 18.628906 13.140625 C 18.40625 13.386719 18.089844 13.746094 17.332031 13.746094 C 16.332031 13.746094 15.421875 13.058594 15.421875 11.660156 C 15.421875 10.574219 16.054688 9.550781 17.453125 9.554688 C 18.726562 9.554688 19.230469 10.347656 19.273438 10.898438 L 18.40625 10.898438 C 18.40625 10.742188 18.113281 10.242188 17.5 10.242188 C 16.882812 10.242188 16.308594 10.652344 16.308594 11.671875 C 16.308594 12.757812 16.925781 13.042969 17.515625 13.042969 C 17.707031 13.042969 18.34375 12.96875 18.523438 12.167969 L 17.558594 12.167969 Z M 17.558594 11.496094 "/>
<path style=" stroke:none;fill-rule:evenodd;fill:rgb(0%,0%,0%);fill-opacity:1;" d="M 0.351562 11.5 C 0.328125 13.886719 4.207031 16.253906 9.097656 16.230469 C 13.988281 16.207031 16.480469 14 16.480469 14 C 16.832031 13.617188 16.242188 13.867188 16.242188 13.867188 C 15.375 14.40625 12.796875 15.566406 8.839844 15.105469 C 4.609375 14.609375 3.28125 13.492188 3.054688 12.355469 L 2.941406 11.710938 C 2.9375 11.289062 3.015625 10.8125 3.226562 10.382812 C 3.648438 9.527344 4.9375 8.257812 8.839844 7.894531 C 12.808594 7.527344 15.375 8.59375 16.242188 9.132812 C 16.242188 9.132812 16.832031 9.382812 16.480469 9 C 16.480469 9 13.988281 6.792969 9.097656 6.769531 C 4.207031 6.746094 0.328125 9.113281 0.351562 11.5 Z M 20.742188 12.917969 L 22.808594 12.917969 L 22.808594 13.640625 L 19.875 13.640625 L 19.875 9.660156 L 20.742188 9.660156 Z M 23.28125 13.292969 L 23.28125 13.328125 L 23.164062 13.328125 L 23.164062 13.640625 L 23.117188 13.640625 L 23.117188 13.328125 L 22.996094 13.328125 L 22.996094 13.292969 Z M 23.390625 13.292969 L 23.480469 13.570312 L 23.484375 13.570312 L 23.578125 13.292969 L 23.648438 13.292969 L 23.648438 13.640625 L 23.605469 13.640625 L 23.605469 13.328125 L 23.496094 13.640625 L 23.464844 13.640625 L 23.367188 13.328125 L 23.363281 13.328125 L 23.363281 13.640625 L 23.324219 13.640625 L 23.324219 13.292969 Z M 23.390625 13.292969 "/>
</g>
</svg>
